Coordinates
version=1
nRows=38
nColumns=34
inDegrees=no

Units are S.I. units (second, meters, Newtons, ...)
If the header above contains a line with 'inDegrees', this indicates whether rotational values are in degrees (yes) or radians (no).

endheader
time	pelvis_tilt	pelvis_list	pelvis_rotation	pelvis_tx	pelvis_ty	pelvis_tz	hip_flexion_r	hip_adduction_r	hip_rotation_r	knee_angle_r	ankle_angle_r	subtalar_angle_r	mtp_angle_r	hip_flexion_l	hip_adduction_l	hip_rotation_l	knee_angle_l	ankle_angle_l	subtalar_angle_l	mtp_angle_l	lumbar_extension	lumbar_bending	lumbar_rotation	arm_flex_r	arm_add_r	arm_rot_r	elbow_flex_r	pro_sup_r	arm_flex_l	arm_add_l	arm_rot_l	elbow_flex_l	pro_sup_l
3.25	-0.842017	-0.0118522	-0.0156358	-0.377391	0.704424	-0.685416	1.83836	-0.307485	-0.0588993	1.25261	0.395895	0.167211	-0.0964396	1.85564	-0.31729	-0.0500841	1.26417	0.346076	0.067271	-0.0964045	-0.22412	-0.0318556	0.0395678	2.07111	-0.603188	0.616614	1.78653	1.45176	2.01841	-0.581651	0.561861	1.79057	1.60297
3.26	-0.835103	-0.0116441	-0.0138153	-0.377412	0.699254	-0.685633	1.84719	-0.31269	-0.0543719	1.27555	0.405514	0.171139	-0.0964396	1.8636	-0.319145	-0.0483208	1.28611	0.354519	0.0719992	-0.0964043	-0.239099	-0.0319568	0.0368197	2.07828	-0.600608	0.616892	1.78944	1.45101	2.02807	-0.577625	0.563326	1.79136	1.60402
3.27	-0.828255	-0.0115698	-0.0120111	-0.377379	0.693998	-0.685858	1.8561	-0.317633	-0.0496118	1.29844	0.415115	0.174346	-0.0964395	1.87177	-0.320771	-0.0460914	1.30809	0.363112	0.0758744	-0.096404	-0.253655	-0.0318234	0.0342292	2.08561	-0.598455	0.617771	1.79255	1.45045	2.03775	-0.573846	0.565161	1.79191	1.60642
3.28	-0.821599	-0.0115927	-0.0102144	-0.377307	0.688663	-0.68609	1.86518	-0.322225	-0.0445312	1.3212	0.424542	0.176635	-0.0964395	1.88024	-0.32211	-0.0434376	1.33001	0.371732	0.078794	-0.0964038	-0.267688	-0.0314897	0.0317815	2.09313	-0.596726	0.619206	1.79585	1.45004	2.04753	-0.57027	0.567303	1.79214	1.61009
3.29	-0.815188	-0.0116655	-0.00839815	-0.377204	0.683262	-0.686332	1.87448	-0.326403	-0.0390278	1.34376	0.433689	0.177918	-0.0964395	1.88898	-0.323105	-0.040429	1.35179	0.380277	0.0807868	-0.0964035	-0.281174	-0.0310019	0.0294408	2.1008	-0.595395	0.621098	1.79934	1.44966	2.05743	-0.566845	0.569658	1.79206	1.61463
3.3	-0.809002	-0.0117481	-0.0065281	-0.377072	0.677813	-0.686586	1.88398	-0.330133	-0.0330138	1.36608	0.442508	0.178238	-0.0964395	1.89791	-0.323713	-0.0371403	1.37337	0.388673	0.0820131	-0.0964033	-0.294173	-0.0304031	0.0271713	2.10856	-0.594422	0.623309	1.803	1.44913	2.06746	-0.563524	0.572119	1.7917	1.61943
3.31	-0.802965	-0.0118272	-0.00457381	-0.376908	0.672335	-0.686851	1.89354	-0.333414	-0.0264513	1.38813	0.451006	0.177757	-0.0964395	1.90688	-0.323914	-0.0336256	1.3947	0.396882	0.0827266	-0.096403	-0.306802	-0.0297142	0.0249558	2.11632	-0.593762	0.625673	1.80682	1.44825	2.07758	-0.560271	0.574581	1.79116	1.62375
3.32	-0.796974	-0.0119252	-0.00251593	-0.376704	0.666851	-0.687128	1.90304	-0.336284	-0.0193778	1.40991	0.459238	0.176721	-0.0964395	1.91576	-0.323725	-0.0299087	1.41575	0.404898	0.0832217	-0.0964028	-0.319193	-0.028923	0.0228023	2.12396	-0.593362	0.62801	1.81078	1.44692	2.08771	-0.557063	0.576946	1.79053	1.62696
3.33	-0.790927	-0.0120921	-0.000350841	-0.376452	0.661378	-0.687414	1.9123	-0.338812	-0.0119075	1.43142	0.467284	0.175419	-0.0964395	1.92442	-0.323202	-0.0259958	1.4365	0.412736	0.0837913	-0.0964025	-0.331461	-0.0279903	0.0207405	2.13136	-0.59316	0.630136	1.81484	1.44521	2.09774	-0.553892	0.579112	1.78991	1.62884
3.34	-0.784734	-0.0123867	0.00190701	-0.376144	0.655935	-0.687707	1.92116	-0.341098	-0.0042112	1.45264	0.475237	0.174135	-0.0964395	1.93276	-0.322448	-0.0219003	1.45695	0.420421	0.0847004	-0.0964023	-0.343687	-0.0268701	0.0188139	2.13835	-0.593087	0.631877	1.81896	1.44328	2.10751	-0.550749	0.580987	1.78935	1.62946
3.35	-0.778322	-0.0128571	0.00422648	-0.375769	0.650532	-0.688001	1.92948	-0.343249	0.00351198	1.47358	0.483177	0.173123	-0.0964395	1.94073	-0.321612	-0.0176596	1.4771	0.42798	0.0861678	-0.0964021	-0.355919	-0.0255323	0.017074	2.1448	-0.593084	0.633076	1.82308	1.44128	2.11691	-0.547624	0.582501	1.78888	1.62912
3.36	-0.77163	-0.0135284	0.00656583	-0.37532	0.645181	-0.688292	1.93717	-0.345376	0.0110646	1.49421	0.491168	0.172584	-0.0964395	1.94826	-0.32087	-0.0133388	1.49697	0.435437	0.0883566	-0.0964018	-0.368179	-0.0239749	0.0155728	2.15056	-0.593107	0.63361	1.82719	1.43934	2.1258	-0.544501	0.583611	1.7885	1.6282
3.37	-0.764608	-0.0143996	0.00888178	-0.374788	0.639888	-0.688576	1.94412	-0.347585	0.0182767	1.51453	0.49924	0.17266	-0.0964395	1.95532	-0.320402	-0.00902118	1.51657	0.44281	0.0913732	-0.0964016	-0.38048	-0.0222247	0.0143557	2.15553	-0.593135	0.633402	1.83125	1.43752	2.13409	-0.541356	0.58431	1.78817	1.62707
3.38	-0.757212	-0.0154484	0.0111377	-0.374168	0.63466	-0.688848	1.95031	-0.349971	0.0250242	1.53453	0.507398	0.173444	-0.0964395	1.96186	-0.320367	-0.00479255	1.53592	0.450115	0.0952697	-0.0964013	-0.392826	-0.0203293	0.0134561	2.15965	-0.593167	0.632428	1.83527	1.43584	2.14174	-0.538166	0.584623	1.78784	1.62603
3.39	-0.749412	-0.0166418	0.0133071	-0.373455	0.629504	-0.689107	1.9557	-0.352615	0.0312338	1.55423	0.515624	0.174988	-0.0964395	1.96784	-0.320876	-0.000721507	1.55505	0.457363	0.100044	-0.0964011	-0.405221	-0.0183437	0.0128981	2.16291	-0.593225	0.630716	1.83924	1.43432	2.14874	-0.534917	0.584613	1.78746	1.62527
3.4	-0.741197	-0.0179465	0.015373	-0.372651	0.624426	-0.689352	1.9603	-0.355574	0.0368785	1.57363	0.523887	0.177315	-0.0964395	1.97326	-0.321982	0.00315759	1.57395	0.464555	0.105639	-0.0964008	-0.41766	-0.0163184	0.0127031	2.16537	-0.593343	0.628337	1.84317	1.43294	2.15512	-0.531609	0.584382	1.78697	1.62487
3.41	-0.732586	-0.0193343	0.017325	-0.371758	0.619434	-0.689584	1.96416	-0.358874	0.0419697	1.59272	0.532149	0.180421	-0.0964395	1.9781	-0.323668	0.00685366	1.59262	0.471676	0.111937	-0.0964006	-0.430126	-0.0142936	0.012891	2.1671	-0.593565	0.625397	1.84703	1.43179	2.16095	-0.528264	0.584056	1.78633	1.62481
3.42	-0.723622	-0.0207811	0.0191576	-0.370784	0.614536	-0.689805	1.96731	-0.362502	0.0465522	1.61148	0.540363	0.184258	-0.0964395	1.98239	-0.325849	0.0104173	1.61102	0.478697	0.118772	-0.0964003	-0.44259	-0.0123003	0.0134747	2.16824	-0.593924	0.622019	1.85081	1.43097	2.16632	-0.524922	0.583777	1.78551	1.62502
3.43	-0.714364	-0.0222616	0.0208692	-0.36974	0.609746	-0.690016	1.96983	-0.366402	0.0506981	1.62989	0.548481	0.188721	-0.0964395	1.98613	-0.32838	0.013931	1.62909	0.485582	0.125939	-0.0964	-0.455026	-0.0103669	0.0144506	2.16893	-0.594433	0.618338	1.85448	1.43053	2.17137	-0.521644	0.583691	1.78451	1.6254
3.44	-0.704878	-0.0237459	0.0224596	-0.368637	0.605077	-0.690219	1.97174	-0.370476	0.0544973	1.64787	0.556456	0.19364	-0.0964395	1.98936	-0.331072	0.0174972	1.64679	0.492289	0.133206	-0.0963998	-0.467415	-0.00852394	0.0157958	2.16933	-0.595079	0.614489	1.85797	1.43043	2.17623	-0.5185	0.583926	1.7833	1.62592
3.45	-0.695235	-0.0252022	0.0239263	-0.367491	0.600546	-0.690414	1.9731	-0.374596	0.0580403	1.66537	0.564248	0.198796	-0.0964395	1.99208	-0.333718	0.0212252	1.66404	0.498784	0.140318	-0.0963995	-0.479745	-0.00680448	0.017475	2.16959	-0.595829	0.610603	1.86124	1.43051	2.18102	-0.515559	0.584576	1.78191	1.62658
3.46	-0.685513	-0.0266035	0.0252616	-0.366317	0.59617	-0.690602	1.97396	-0.378627	0.0614009	1.6823	0.571828	0.203962	-0.0964395	1.99432	-0.336124	0.025219	1.68079	0.505043	0.147005	-0.0963993	-0.491991	-0.00524004	0.0194513	2.16989	-0.596645	0.6068	1.86424	1.43056	2.18585	-0.512866	0.585674	1.78032	1.62745
3.47	-0.675803	-0.0279313	0.0264516	-0.365127	0.591964	-0.690781	1.97434	-0.382447	0.0646282	1.69861	0.579182	0.208945	-0.0964395	1.99614	-0.338133	0.0295634	1.69697	0.511056	0.153006	-0.096399	-0.504108	-0.00385628	0.0216928	2.17032	-0.597494	0.603186	1.86694	1.43034	2.19075	-0.510439	0.587185	1.77858	1.62867
3.48	-0.666205	-0.0291768	0.0274788	-0.363936	0.587938	-0.690948	1.97433	-0.385959	0.0677459	1.71421	0.586298	0.213621	-0.0964394	1.99759	-0.339647	0.0343077	1.71254	0.516821	0.158115	-0.0963988	-0.516018	-0.00267024	0.0241738	2.17098	-0.598338	0.599842	1.8693	1.4296	2.19571	-0.508273	0.589004	1.77671	1.63034
3.49	-0.656827	-0.0303381	0.0283245	-0.362754	0.584101	-0.6911	1.974	-0.389099	0.0707581	1.72907	0.593168	0.217937	-0.0964394	1.99875	-0.340634	0.0394528	1.72746	0.522337	0.162218	-0.0963985	-0.527616	-0.00168893	0.0268719	2.17188	-0.599135	0.59681	1.87132	1.42819	2.20064	-0.506349	0.590982	1.77477	1.63248
3.5	-0.647775	-0.0314176	0.0289736	-0.361589	0.580457	-0.691235	1.97342	-0.391841	0.073652	1.74314	0.599778	0.221901	-0.0964394	1.9997	-0.341131	0.0449458	1.74169	0.5276	0.165317	-0.0963983	-0.538778	-0.000909027	0.0297642	2.17299	-0.59983	0.594097	1.87299	1.42605	2.2054	-0.504643	0.592946	1.77286	1.63493
3.51	-0.639141	-0.0324185	0.0294173	-0.360445	0.577009	-0.691349	1.97268	-0.394199	0.0764021	1.7564	0.60611	0.225571	-0.0964394	2.00049	-0.341236	0.050684	1.75519	0.532612	0.167519	-0.096398	-0.549378	-0.000318729	0.0328213	2.17421	-0.600359	0.591676	1.87432	1.42326	2.20984	-0.503143	0.594738	1.77107	1.63742
3.52	-0.631	-0.0333416	0.0296564	-0.359324	0.573761	-0.691443	1.97184	-0.396223	0.0789743	1.76882	0.612148	0.229034	-0.0964394	2.00117	-0.341093	0.0565269	1.76793	0.537377	0.169007	-0.0963978	-0.559301	9.88212e-05	0.0360011	2.17543	-0.60066	0.5895	1.87534	1.42011	2.21379	-0.501859	0.596233	1.76953	1.63959
3.53	-0.623398	-0.0341848	0.0297027	-0.358225	0.570714	-0.691514	1.97097	-0.397993	0.0813312	1.78042	0.617876	0.232399	-0.0964394	2.00176	-0.340874	0.062314	1.77989	0.541908	0.170018	-0.0963975	-0.56845	0.000363609	0.0392474	2.17653	-0.600677	0.58751	1.87603	1.41707	2.21712	-0.500825	0.597351	1.76832	1.64124
3.54	-0.616357	-0.0349457	0.0295811	-0.357145	0.567871	-0.69156	1.97008	-0.39961	0.0834359	1.79119	0.623287	0.235781	-0.0964394	2.00226	-0.340755	0.0678867	1.79106	0.546227	0.170818	-0.0963973	-0.576759	0.000499564	0.0424936	2.17738	-0.60038	0.585662	1.8764	1.41455	2.21972	-0.500091	0.59806	1.76753	1.64227
3.55	-0.609874	-0.0356255	0.0293302	-0.35608	0.565234	-0.691583	1.96919	-0.401187	0.0852561	1.80116	0.628379	0.239289	-0.0964394	2.00268	-0.340885	0.0731052	1.80143	0.550362	0.171672	-0.096397	-0.584186	0.000535151	0.045668	2.17789	-0.599771	0.583938	1.87648	1.41282	2.22152	-0.499701	0.598365	1.76719	1.6427
3.56	-0.603927	-0.0362291	0.0290013	-0.355025	0.562806	-0.691582	1.96829	-0.402834	0.0867687	1.81035	0.633158	0.243006	-0.0964394	2.00299	-0.341376	0.0778601	1.81102	0.554338	0.172818	-0.0963968	-0.590716	0.00050162	0.0486985	2.178	-0.59889	0.582362	1.87632	1.41195	2.2225	-0.499683	0.598293	1.76728	1.64265
3.57	-0.598483	-0.036765	0.028653	-0.353977	0.560593	-0.691557	1.96735	-0.404639	0.0879639	1.81881	0.637638	0.246963	-0.0964394	2.00317	-0.34228	0.0820786	1.81982	0.558175	0.174437	-0.0963965	-0.596352	0.000429638	0.0515172	2.17767	-0.597811	0.580991	1.87597	1.41182	2.2227	-0.500022	0.59787	1.76778	1.64232
3.58	-0.5935	-0.0372442	0.0283451	-0.352933	0.558599	-0.69151	1.96635	-0.406654	0.0888474	1.82655	0.641841	0.251131	-0.0964393	2.00319	-0.343587	0.0857295	1.82786	0.561878	0.176622	-0.0963962	-0.601114	0.000346591	0.0540659	2.17693	-0.596631	0.579915	1.8755	1.4122	2.22214	-0.500664	0.597112	1.76859	1.64188
3.59	-0.588935	-0.0376811	0.0281291	-0.35189	0.556828	-0.691442	1.96524	-0.408886	0.0894389	1.83361	0.645788	0.255419	-0.0964393	2.003	-0.345227	0.0888257	1.83511	0.565441	0.179367	-0.096396	-0.605032	0.00027555	0.0563027	2.17582	-0.595458	0.579237	1.87496	1.41281	2.22091	-0.501522	0.596029	1.76962	1.6415
3.6	-0.584754	-0.0380923	0.0280411	-0.35085	0.555288	-0.691354	1.96397	-0.411294	0.0897683	1.83999	0.649495	0.259685	-0.0964393	2.00259	-0.347083	0.0914209	1.8416	0.56884	0.182565	-0.0963957	-0.608139	0.000234951	0.0582061	2.1744	-0.594406	0.57906	1.8744	1.41337	2.21908	-0.502502	0.594645	1.77076	1.64129
3.61	-0.580933	-0.0384947	0.0280963	-0.349816	0.553985	-0.691247	1.9625	-0.413791	0.0898715	1.8457	0.652967	0.263752	-0.0964393	2.00191	-0.349008	0.0935983	1.8473	0.572041	0.186024	-0.0963955	-0.610473	0.000237857	0.0597765	2.17279	-0.59357	0.579466	1.87388	1.41365	2.21677	-0.503524	0.592995	1.77192	1.64132
3.62	-0.577467	-0.0389022	0.028288	-0.348791	0.552924	-0.691123	1.9608	-0.416253	0.089788	1.85072	0.656195	0.267424	-0.0964393	2.00097	-0.350845	0.0954557	1.85222	0.575006	0.189502	-0.0963952	-0.61206	0.000290917	0.0610318	2.17107	-0.593028	0.580501	1.87342	1.41354	2.2141	-0.504535	0.591121	1.77306	1.64158
